<svg width="32" height="32" viewBox="0 0 32 32" fill="none" xmlns="http://www.w3.org/2000/svg">
<g clip-path="url(#clip0_739_2348)">
<path d="M29.0006 30.3599H26.0006C25.8016 30.3599 25.6406 30.1989 25.6406 29.9999V26.3599H6.36063V29.9999C6.36063 30.1989 6.19963 30.3599 6.00063 30.3599H3.00063C2.80163 30.3599 2.64063 30.1989 2.64063 29.9999V25.9999C2.64063 25.9769 2.64262 25.9539 2.64662 25.9329C2.03862 25.5049 1.64062 24.7979 1.64062 23.9999V15.9999C1.64062 14.7909 2.55462 13.7909 3.72762 13.6559L6.44163 4.60989C6.61562 4.02989 7.13963 3.63989 7.74463 3.63989H24.2566C24.8616 3.63989 25.3856 4.02989 25.5596 4.60889L28.2736 13.6549C29.4476 13.7899 30.3616 14.7899 30.3616 15.9989V23.9989C30.3616 24.7969 29.9636 25.5039 29.3546 25.9319C29.3586 25.9529 29.3616 25.9759 29.3616 25.9989V29.9989C29.3606 30.1989 29.1996 30.3599 29.0006 30.3599ZM26.3606 29.6399H28.6396V26.2719C28.4366 26.3299 28.2216 26.3609 27.9996 26.3609H26.3596L26.3606 29.6399ZM3.36062 29.6399H5.64062V26.3599H4.00063C3.77863 26.3599 3.56362 26.3289 3.36062 26.2709V29.6399ZM26.0006 25.6399H28.0006C28.9046 25.6399 29.6406 24.9049 29.6406 23.9999V15.9999C29.6406 15.0979 28.9096 14.3639 28.0086 14.3599C28.0006 14.3589 27.9966 14.3599 27.9916 14.3599H4.00863C4.00463 14.3599 3.99763 14.3599 3.99263 14.3599C3.09263 14.3639 2.36062 15.0979 2.36062 15.9999V23.9999C2.36062 24.9039 3.09663 25.6399 4.00063 25.6399H26.0006ZM4.48463 13.6399H27.5176L25.3326 6.35989H6.66863L4.48463 13.6399ZM6.88462 5.63989H25.1166L24.8696 4.81589C24.7886 4.54689 24.5366 4.35889 24.2566 4.35889H7.74463C7.45963 4.35889 7.21362 4.54289 7.13163 4.81589L6.88462 5.63989ZM25.0006 21.3599C23.6986 21.3599 22.6406 20.3009 22.6406 18.9999C22.6406 17.6989 23.6996 16.6399 25.0006 16.6399C26.3016 16.6399 27.3606 17.6979 27.3606 18.9999C27.3606 20.3019 26.3026 21.3599 25.0006 21.3599ZM25.0006 17.3599C24.0966 17.3599 23.3606 18.0949 23.3606 18.9999C23.3606 19.9049 24.0956 20.6399 25.0006 20.6399C25.9056 20.6399 26.6406 19.9049 26.6406 18.9999C26.6406 18.0949 25.9046 17.3599 25.0006 17.3599ZM7.00063 21.3599C5.69963 21.3599 4.64062 20.3009 4.64062 18.9999C4.64062 17.6989 5.69963 16.6399 7.00063 16.6399C8.30163 16.6399 9.36062 17.6979 9.36062 18.9999C9.36062 20.3019 8.30163 21.3599 7.00063 21.3599ZM7.00063 17.3599C6.09663 17.3599 5.36063 18.0949 5.36063 18.9999C5.36063 19.9049 6.09663 20.6399 7.00063 20.6399C7.90462 20.6399 8.64063 19.9039 8.64063 18.9999C8.64063 18.0959 7.90462 17.3599 7.00063 17.3599ZM22.0006 12.3599C21.8926 12.3599 21.7846 12.3109 21.7136 12.2169L18.7136 8.25289C18.5936 8.09389 18.6246 7.86889 18.7836 7.74889C18.9386 7.62889 19.1656 7.65789 19.2876 7.81889L22.2876 11.7829C22.4076 11.9419 22.3766 12.1669 22.2176 12.2869C22.1526 12.3359 22.0766 12.3599 22.0006 12.3599ZM23.0006 10.5399C22.8916 10.5399 22.7826 10.4899 22.7126 10.3949L20.7126 7.71489C20.5936 7.55589 20.6256 7.32989 20.7856 7.21089C20.9436 7.09289 21.1696 7.12389 21.2886 7.28389L23.2886 9.96389C23.4076 10.1229 23.3756 10.3489 23.2156 10.4679C23.1506 10.5169 23.0756 10.5399 23.0006 10.5399ZM30.0006 24.3599H2.00063V23.6399H30.0006V24.3599ZM21.0006 20.3599H11.0006V19.6399H21.0006V20.3599ZM21.0006 18.3599H11.0006V17.6399H21.0006V18.3599ZM29.3606 11.9999H28.6406V8.99989H29.3616L29.3606 11.9999ZM3.36062 11.9999H2.64063V8.99989H3.36062V11.9999Z" fill="black"/>
</g>
<defs>
<clipPath id="clip0_739_2348">
<rect width="32" height="32" fill="white"/>
</clipPath>
</defs>
</svg>
