<svg width="32" height="32" viewBox="0 0 32 32" fill="none" xmlns="http://www.w3.org/2000/svg">
<g clip-path="url(#clip0_739_2351)">
<path d="M13.5006 3.99989C13.5006 4.27589 13.2766 4.49989 13.0006 4.49989C12.7246 4.49989 12.5006 4.27589 12.5006 3.99989C12.5006 3.72389 12.7246 3.49989 13.0006 3.49989C13.2766 3.49989 13.5006 3.72389 13.5006 3.99989ZM16.0006 3.49989C15.7246 3.49989 15.5006 3.72389 15.5006 3.99989C15.5006 4.27589 15.7246 4.49989 16.0006 4.49989C16.2766 4.49989 16.5006 4.27589 16.5006 3.99989C16.5006 3.72389 16.2766 3.49989 16.0006 3.49989ZM19.0006 3.49989C18.7246 3.49989 18.5006 3.72389 18.5006 3.99989C18.5006 4.27589 18.7246 4.49989 19.0006 4.49989C19.2766 4.49989 19.5006 4.27589 19.5006 3.99989C19.5006 3.72389 19.2766 3.49989 19.0006 3.49989ZM13.0006 6.49989C12.7246 6.49989 12.5006 6.72389 12.5006 6.99989C12.5006 7.27589 12.7246 7.49989 13.0006 7.49989C13.2766 7.49989 13.5006 7.27589 13.5006 6.99989C13.5006 6.72389 13.2766 6.49989 13.0006 6.49989ZM16.0006 6.49989C15.7246 6.49989 15.5006 6.72389 15.5006 6.99989C15.5006 7.27589 15.7246 7.49989 16.0006 7.49989C16.2766 7.49989 16.5006 7.27589 16.5006 6.99989C16.5006 6.72389 16.2766 6.49989 16.0006 6.49989ZM19.0006 6.49989C18.7246 6.49989 18.5006 6.72389 18.5006 6.99989C18.5006 7.27589 18.7246 7.49989 19.0006 7.49989C19.2766 7.49989 19.5006 7.27589 19.5006 6.99989C19.5006 6.72389 19.2766 6.49989 19.0006 6.49989ZM13.0006 9.49989C12.7246 9.49989 12.5006 9.72389 12.5006 9.99989C12.5006 10.2759 12.7246 10.4999 13.0006 10.4999C13.2766 10.4999 13.5006 10.2759 13.5006 9.99989C13.5006 9.72389 13.2766 9.49989 13.0006 9.49989ZM16.0006 9.49989C15.7246 9.49989 15.5006 9.72389 15.5006 9.99989C15.5006 10.2759 15.7246 10.4999 16.0006 10.4999C16.2766 10.4999 16.5006 10.2759 16.5006 9.99989C16.5006 9.72389 16.2766 9.49989 16.0006 9.49989ZM19.0006 9.49989C18.7246 9.49989 18.5006 9.72389 18.5006 9.99989C18.5006 10.2759 18.7246 10.4999 19.0006 10.4999C19.2766 10.4999 19.5006 10.2759 19.5006 9.99989C19.5006 9.72389 19.2766 9.49989 19.0006 9.49989ZM3.50063 12.9999C3.50063 13.2759 3.72463 13.4999 4.00063 13.4999C4.27663 13.4999 4.50063 13.2759 4.50063 12.9999C4.50063 12.7239 4.27663 12.4999 4.00063 12.4999C3.72463 12.4999 3.50063 12.7239 3.50063 12.9999ZM6.50063 12.9999C6.50063 13.2759 6.72463 13.4999 7.00063 13.4999C7.27663 13.4999 7.50063 13.2759 7.50063 12.9999C7.50063 12.7239 7.27663 12.4999 7.00063 12.4999C6.72463 12.4999 6.50063 12.7239 6.50063 12.9999ZM6.50063 15.9999C6.50063 16.2759 6.72463 16.4999 7.00063 16.4999C7.27663 16.4999 7.50063 16.2759 7.50063 15.9999C7.50063 15.7239 7.27663 15.4999 7.00063 15.4999C6.72463 15.4999 6.50063 15.7239 6.50063 15.9999ZM3.50063 15.9999C3.50063 16.2759 3.72463 16.4999 4.00063 16.4999C4.27663 16.4999 4.50063 16.2759 4.50063 15.9999C4.50063 15.7239 4.27663 15.4999 4.00063 15.4999C3.72463 15.4999 3.50063 15.7239 3.50063 15.9999ZM3.50063 18.9999C3.50063 19.2759 3.72463 19.4999 4.00063 19.4999C4.27663 19.4999 4.50063 19.2759 4.50063 18.9999C4.50063 18.7239 4.27663 18.4999 4.00063 18.4999C3.72463 18.4999 3.50063 18.7239 3.50063 18.9999ZM6.50063 18.9999C6.50063 19.2759 6.72463 19.4999 7.00063 19.4999C7.27663 19.4999 7.50063 19.2759 7.50063 18.9999C7.50063 18.7239 7.27663 18.4999 7.00063 18.4999C6.72463 18.4999 6.50063 18.7239 6.50063 18.9999ZM24.5006 12.9999C24.5006 13.2759 24.7246 13.4999 25.0006 13.4999C25.2766 13.4999 25.5006 13.2759 25.5006 12.9999C25.5006 12.7239 25.2766 12.4999 25.0006 12.4999C24.7246 12.4999 24.5006 12.7239 24.5006 12.9999ZM27.5006 12.9999C27.5006 13.2759 27.7246 13.4999 28.0006 13.4999C28.2766 13.4999 28.5006 13.2759 28.5006 12.9999C28.5006 12.7239 28.2766 12.4999 28.0006 12.4999C27.7246 12.4999 27.5006 12.7239 27.5006 12.9999ZM27.5006 15.9999C27.5006 16.2759 27.7246 16.4999 28.0006 16.4999C28.2766 16.4999 28.5006 16.2759 28.5006 15.9999C28.5006 15.7239 28.2766 15.4999 28.0006 15.4999C27.7246 15.4999 27.5006 15.7239 27.5006 15.9999ZM24.5006 15.9999C24.5006 16.2759 24.7246 16.4999 25.0006 16.4999C25.2766 16.4999 25.5006 16.2759 25.5006 15.9999C25.5006 15.7239 25.2766 15.4999 25.0006 15.4999C24.7246 15.4999 24.5006 15.7239 24.5006 15.9999ZM24.5006 18.9999C24.5006 19.2759 24.7246 19.4999 25.0006 19.4999C25.2766 19.4999 25.5006 19.2759 25.5006 18.9999C25.5006 18.7239 25.2766 18.4999 25.0006 18.4999C24.7246 18.4999 24.5006 18.7239 24.5006 18.9999ZM27.5006 18.9999C27.5006 19.2759 27.7246 19.4999 28.0006 19.4999C28.2766 19.4999 28.5006 19.2759 28.5006 18.9999C28.5006 18.7239 28.2766 18.4999 28.0006 18.4999C27.7246 18.4999 27.5006 18.7239 27.5006 18.9999ZM13.0006 21.4999C12.7246 21.4999 12.5006 21.7239 12.5006 21.9999C12.5006 22.2759 12.7246 22.4999 13.0006 22.4999C13.2766 22.4999 13.5006 22.2759 13.5006 21.9999C13.5006 21.7239 13.2766 21.4999 13.0006 21.4999ZM16.0006 21.4999C15.7246 21.4999 15.5006 21.7239 15.5006 21.9999C15.5006 22.2759 15.7246 22.4999 16.0006 22.4999C16.2766 22.4999 16.5006 22.2759 16.5006 21.9999C16.5006 21.7239 16.2766 21.4999 16.0006 21.4999ZM19.0006 21.4999C18.7246 21.4999 18.5006 21.7239 18.5006 21.9999C18.5006 22.2759 18.7246 22.4999 19.0006 22.4999C19.2766 22.4999 19.5006 22.2759 19.5006 21.9999C19.5006 21.7239 19.2766 21.4999 19.0006 21.4999ZM19.0006 24.4999C18.7246 24.4999 18.5006 24.7239 18.5006 24.9999C18.5006 25.2759 18.7246 25.4999 19.0006 25.4999C19.2766 25.4999 19.5006 25.2759 19.5006 24.9999C19.5006 24.7239 19.2766 24.4999 19.0006 24.4999ZM16.0006 24.4999C15.7246 24.4999 15.5006 24.7239 15.5006 24.9999C15.5006 25.2759 15.7246 25.4999 16.0006 25.4999C16.2766 25.4999 16.5006 25.2759 16.5006 24.9999C16.5006 24.7239 16.2766 24.4999 16.0006 24.4999ZM13.0006 24.4999C12.7246 24.4999 12.5006 24.7239 12.5006 24.9999C12.5006 25.2759 12.7246 25.4999 13.0006 25.4999C13.2766 25.4999 13.5006 25.2759 13.5006 24.9999C13.5006 24.7239 13.2766 24.4999 13.0006 24.4999ZM13.0006 27.4999C12.7246 27.4999 12.5006 27.7239 12.5006 27.9999C12.5006 28.2759 12.7246 28.4999 13.0006 28.4999C13.2766 28.4999 13.5006 28.2759 13.5006 27.9999C13.5006 27.7239 13.2766 27.4999 13.0006 27.4999ZM16.0006 27.4999C15.7246 27.4999 15.5006 27.7239 15.5006 27.9999C15.5006 28.2759 15.7246 28.4999 16.0006 28.4999C16.2766 28.4999 16.5006 28.2759 16.5006 27.9999C16.5006 27.7239 16.2766 27.4999 16.0006 27.4999ZM19.0006 27.4999C18.7246 27.4999 18.5006 27.7239 18.5006 27.9999C18.5006 28.2759 18.7246 28.4999 19.0006 28.4999C19.2766 28.4999 19.5006 28.2759 19.5006 27.9999C19.5006 27.7239 19.2766 27.4999 19.0006 27.4999ZM20.0006 31.3599H12.0006C10.6996 31.3599 9.64062 30.3009 9.64062 28.9999V22.3599H3.00063C1.69963 22.3599 0.640625 21.3009 0.640625 19.9999V11.9999C0.640625 10.6989 1.69963 9.63989 3.00063 9.63989H9.64062V2.99989C9.64062 1.69889 10.6996 0.639893 12.0006 0.639893H20.0006C21.3026 0.639893 22.3606 1.69889 22.3606 2.99989V9.63989H29.0006C30.3026 9.63989 31.3606 10.6989 31.3606 11.9999V19.9999C31.3606 21.3019 30.3016 22.3599 29.0006 22.3599H22.3606V28.9999C22.3606 30.3019 21.3026 31.3599 20.0006 31.3599ZM12.0006 1.35989C11.0966 1.35989 10.3606 2.09589 10.3606 2.99989V28.9999C10.3606 29.9039 11.0966 30.6399 12.0006 30.6399H20.0006C20.9046 30.6399 21.6406 29.9049 21.6406 28.9999V2.99989C21.6406 2.09589 20.9056 1.35989 20.0006 1.35989H12.0006ZM22.3606 21.6399H29.0006C29.9046 21.6399 30.6406 20.9049 30.6406 19.9999V11.9999C30.6406 11.0959 29.9056 10.3599 29.0006 10.3599H22.3606V21.6399ZM3.00063 10.3589C2.09663 10.3589 1.36063 11.0949 1.36063 11.9989V19.9989C1.36063 20.9029 2.09663 21.6389 3.00063 21.6389H9.64062V10.3589H3.00063ZM19.0006 19.3599H13.0006C12.8016 19.3599 12.6406 19.1989 12.6406 18.9999C12.6406 18.8009 12.8016 18.6399 13.0006 18.6399H19.0006C19.1996 18.6399 19.3606 18.8009 19.3606 18.9999C19.3606 19.1989 19.1996 19.3599 19.0006 19.3599ZM19.0006 16.3599H13.0006C12.8016 16.3599 12.6406 16.1989 12.6406 15.9999C12.6406 15.8009 12.8016 15.6399 13.0006 15.6399H19.0006C19.1996 15.6399 19.3606 15.8009 19.3606 15.9999C19.3606 16.1989 19.1996 16.3599 19.0006 16.3599ZM19.0006 13.3599H13.0006C12.8016 13.3599 12.6406 13.1989 12.6406 12.9999C12.6406 12.8009 12.8016 12.6399 13.0006 12.6399H19.0006C19.1996 12.6399 19.3606 12.8009 19.3606 12.9999C19.3606 13.1989 19.1996 13.3599 19.0006 13.3599Z" fill="black"/>
</g>
<defs>
<clipPath id="clip0_739_2351">
<rect width="32" height="32" fill="white"/>
</clipPath>
</defs>
</svg>
