<svg width="32" height="32" viewBox="0 0 32 32" fill="none" xmlns="http://www.w3.org/2000/svg">
<g clip-path="url(#clip0_941_7569)">
<path d="M31.0006 31.3599H1.00063V30.6399H4.64062V9.35989H1.00063C0.801625 9.35989 0.640625 9.19889 0.640625 8.99989V6.99989C0.640625 6.80089 0.801625 6.63989 1.00063 6.63989H2.64062V3.99989C2.64062 3.80089 2.80163 3.63989 3.00063 3.63989H6.93563L14.8666 0.665893C14.9076 0.648893 14.9536 0.639893 15.0006 0.639893H17.0006C17.0616 0.639893 17.1176 0.654893 17.1686 0.680893L29.0856 6.63989H31.0006C31.1996 6.63989 31.3606 6.80089 31.3606 6.99989V8.99989C31.3606 9.19889 31.1996 9.35989 31.0006 9.35989H27.3606V15.6399H28.0006C28.1996 15.6399 28.3606 15.8009 28.3606 15.9999V17.9999C28.3606 18.1989 28.1996 18.3599 28.0006 18.3599H26.3606V20.6389V21.7844C26.5596 21.7844 28 21.7844 28 21.7844V22.4999C28 22.4999 26.5596 22.4999 26.3606 22.4999H25.6406C25.4416 22.4999 25 22.4999 25 22.4999V21.7844C25 21.7844 25.4416 21.7844 25.6406 21.7844V20.6389V18.3599H24.0006C23.8016 18.3599 23.6406 18.1989 23.6406 17.9999V15.9999C23.6406 15.8009 23.8016 15.6399 24.0006 15.6399H24.6406V9.35989H17.3606V30.6399H31.0006V31.3599ZM15.3606 30.6399H16.6406V1.35989H15.3606V20.9999C15.3606 21.1989 15.1996 21.3599 15.0006 21.3599H7.00063C6.80163 21.3599 6.64062 21.1989 6.64062 20.9999V9.35989H5.36063V30.6399H6.64062V22.9999C6.64062 22.8009 6.80163 22.6399 7.00063 22.6399H15.0006C15.1996 22.6399 15.3606 22.8009 15.3606 22.9999V30.6399ZM7.36063 30.6399H14.6406V23.3599H7.36063V30.6399ZM7.36063 20.6399H14.3276L7.36063 10.1889V20.6399ZM7.67362 9.35989L14.6406 19.8109V9.35989H7.67362ZM24.3606 17.6399H27.6396V16.3599H24.3606V17.6399ZM25.3606 15.6399H26.6396V9.35989H25.3606V15.6399ZM17.3606 8.63989H30.6406V7.35989H17.3606V8.63989ZM1.36063 8.63989H14.6406V7.35989H1.36063V8.63989ZM17.3606 6.63989H27.4746L17.3606 1.58289V6.63989ZM7.36063 6.63989H14.6406V1.51989L7.36063 4.24989V6.63989ZM3.36062 6.63989H6.64062V4.35989H3.36062V6.63989Z" fill="black"/>
</g>
<defs>
<clipPath id="clip0_941_7569">
<rect width="32" height="32" fill="white"/>
</clipPath>
</defs>
</svg>
