<svg width="46" height="26" viewBox="0 0 46 26" fill="none" xmlns="http://www.w3.org/2000/svg">
<path d="M3.24106 24.7078C3.06713 24.7078 2.89247 24.67 2.72644 24.5944C2.39294 24.4431 2.13419 24.1579 1.99762 23.7939C1.86322 23.4331 1.86466 23.0375 2.00266 22.6798L2.99956 19.9837C3.03909 19.8758 3.13397 19.8057 3.23891 19.8057C3.34456 19.8064 3.43944 19.8766 3.47825 19.9837L4.46869 22.6822C4.60741 23.0494 4.60669 23.4496 4.46581 23.8057C4.335 24.1611 4.08128 24.4431 3.75425 24.5936C3.58966 24.67 3.415 24.7078 3.24106 24.7078ZM3.23819 20.8488L2.48134 22.8957L2.47991 22.9004C2.39509 23.1187 2.39437 23.3598 2.47631 23.5796C2.55969 23.8034 2.71853 23.9775 2.92409 24.0704C3.12966 24.1642 3.35319 24.1634 3.55444 24.0712C3.75353 23.9798 3.90806 23.8081 3.98928 23.5875C4.07697 23.3669 4.07625 23.1242 3.99072 22.8981L3.23819 20.8488ZM22.5409 24.4242H22.0234V12.8897H11.0625C8.27663 12.8897 6.01041 15.5897 6.01041 18.9091C6.01041 19.0658 5.89469 19.1927 5.75166 19.1927H0.719688C0.576656 19.1927 0.460938 19.0658 0.460938 18.9091C0.460938 12.7762 5.07603 7.59511 10.5385 7.59511H13.3984V5.01087H9.70406C8.96734 5.01087 8.36719 4.35378 8.36719 3.54542C8.36719 2.73705 8.96663 2.07996 9.70406 2.07996H17.6103C18.347 2.07996 18.9472 2.73705 18.9472 3.54542C18.9472 4.35378 18.347 5.01087 17.6103 5.01087H13.9159V7.59511H22.0234V0.787842H22.5417L22.5409 24.4242ZM0.982031 18.6254H5.49722C5.62372 15.1249 8.07106 12.3224 11.0618 12.3224H22.0227V8.16239H10.5385C5.44116 8.16239 1.12147 12.9251 0.982031 18.6254ZM9.70406 2.64724C9.25269 2.64724 8.88469 3.05063 8.88469 3.54542C8.88469 4.04021 9.25269 4.4436 9.70406 4.4436H17.6103C18.0624 4.4436 18.4297 4.04021 18.4297 3.54542C18.4297 3.05063 18.0624 2.64724 17.6103 2.64724H9.70406Z" fill="black" stroke="black" stroke-width="0.2"/>
</svg>
