<svg width="797" height="2194" viewBox="0 0 797 2194" fill="none" xmlns="http://www.w3.org/2000/svg">
<path d="M395.668 370.562C392.722 370.562 390.335 372.95 390.335 375.895C390.335 378.841 392.722 381.228 395.668 381.228C398.613 381.228 401.001 378.841 401.001 375.895C401.001 372.95 398.613 370.562 395.668 370.562ZM394.668 375.895L394.668 2194H396.668L396.668 375.895H394.668Z" fill="black" fill-opacity="0.8"/>
<path d="M91.7637 696.316L208.885 408.049H587.802L704.898 696.316H91.7637Z" fill="#484746"/>
<path d="M3.19727 49.4504L178.404 1.67157H618.257L793.463 49.4504H3.19727Z" fill="#484746"/>
<path d="M0 46.5187H796.667L706.826 698.091H89.841L0 46.5187ZM704.901 696.316L793.467 49.4759H3.20057L91.7664 696.316H704.876" fill="#FF1242"/>
<path d="M793.463 49.4502L704.898 696.316H91.7631L3.19727 49.4502H793.463Z" fill="#DE274C"/>
<path d="M0 46.5188L176.732 0H619.936L796.667 46.5188H0Z" fill="#FF1242"/>
</svg>
