<svg width="27" height="27" viewBox="0 0 27 27" fill="none" xmlns="http://www.w3.org/2000/svg">
<g clip-path="url(#clip0_941_7581)">
<path d="M25.8908 26.4599H1.51578V25.8524H2.84828V16.0312H3.43328V25.8524H10.9733V16.0312C10.9733 15.8633 11.1041 15.7274 11.2658 15.7274H16.1408C16.3025 15.7274 16.4333 15.8633 16.4333 16.0312V25.8524H23.9725V16.0312H24.5583V25.8524H25.8908V26.4599ZM11.5583 25.8524H15.8483V16.3349H11.5583V25.8524ZM11.2658 13.8062V13.1987L16.1408 13.1962V13.8037L11.2658 13.8062ZM25.6836 13.7143L13.7033 1.27316L1.72216 13.7143L1.30859 13.2848L13.4961 0.628533C13.6107 0.509564 13.7951 0.509564 13.9097 0.628533L23.9733 11.0792V7.59369H24.5591V11.6867L26.0988 13.2856L25.6836 13.7143Z" fill="black"/>
</g>
<defs>
<clipPath id="clip0_941_7581">
<rect width="26" height="27" fill="white" transform="translate(0.703125)"/>
</clipPath>
</defs>
</svg>
