<svg width="41" height="32" viewBox="0 0 41 32" fill="none" xmlns="http://www.w3.org/2000/svg">
<path d="M20.1812 4.62065C19.9378 4.66874 19.7029 4.79298 19.5064 4.97732C19.342 5.13362 19.3121 5.1797 18.6757 6.21164C17.7383 7.7385 15.825 10.8483 14.4369 13.1046C13.7814 14.1686 12.9785 15.475 12.6496 16.01C12.3207 16.545 11.7079 17.5409 11.2872 18.2242C10.8665 18.9074 10.1811 20.0215 9.76465 20.6988C9.34825 21.3761 8.52184 22.7206 7.9282 23.6844C7.33455 24.6482 6.82632 25.4818 6.8007 25.5379C6.70674 25.7282 6.67898 25.8785 6.68966 26.129C6.6982 26.3093 6.71101 26.3915 6.75585 26.5057C6.90533 26.9044 7.23419 27.213 7.65273 27.3453L7.82783 27.4014H20.5015H33.1752L33.3503 27.3453C33.7689 27.213 34.0977 26.9044 34.2472 26.5057C34.354 26.2212 34.3348 25.8044 34.2024 25.5379C34.1746 25.4818 33.7561 24.7925 33.2713 24.005C32.3851 22.5623 31.3815 20.9352 29.0859 17.2022C28.4004 16.0882 27.7876 15.0923 27.7235 14.9881C25.682 11.6699 24.0506 9.0189 22.9039 7.1534C22.2846 6.14551 21.7401 5.26386 21.6931 5.19573C21.5009 4.91521 21.1486 4.68477 20.8112 4.61865C20.6254 4.58258 20.3649 4.58258 20.1812 4.62065ZM20.6467 5.63856C20.6788 5.65459 20.7257 5.68866 20.7492 5.7147C20.7749 5.73875 21.1592 6.3519 21.6013 7.07325C22.0454 7.79461 22.7266 8.90469 23.1174 9.53787C24.9176 12.4654 26.3269 14.7537 26.4337 14.928C26.707 15.3708 28.4453 18.1981 29.1393 19.3262C29.5536 19.9975 30.175 21.0074 30.5209 21.5704C30.8668 22.1315 31.6078 23.3398 32.1716 24.2535C32.7332 25.1672 33.2051 25.9506 33.2222 25.9927C33.2713 26.127 33.1966 26.2913 33.0578 26.3594C33.0023 26.3855 31.4904 26.3895 20.5015 26.3895C9.51268 26.3895 8.0008 26.3855 7.94528 26.3594C7.86627 26.3213 7.80007 26.2412 7.77445 26.147C7.73814 26.0208 7.70611 26.0809 8.48981 24.8065C8.88273 24.1713 10.5804 21.4101 12.1585 18.8453C12.8162 17.7753 13.6212 16.4689 13.9458 15.9399C14.2704 15.4109 14.879 14.423 15.2954 13.7458C15.7118 13.0685 16.4699 11.8362 16.9781 11.0106C17.4863 10.1831 18.4216 8.66423 19.0559 7.6343C19.6879 6.60437 20.2239 5.74276 20.2431 5.72272C20.3414 5.61652 20.5229 5.57845 20.6467 5.63856Z" fill="black"/>
<path d="M20.1957 10.3515C20.0057 10.3855 19.6982 10.5298 19.5423 10.654C19.2049 10.9266 18.9935 11.2712 18.8995 11.702C18.8355 11.9845 18.8504 12.1749 19.0939 14.2568C19.2134 15.2707 19.4206 17.0561 19.5572 18.2242C19.6918 19.3924 19.8114 20.3803 19.822 20.4204C19.869 20.5887 20.0527 20.763 20.2534 20.8311C20.3046 20.8492 20.4157 20.8652 20.5054 20.8652C20.7168 20.8672 20.8876 20.7971 21.035 20.6508C21.1673 20.5205 21.1994 20.4284 21.24 20.0577C21.257 19.8974 21.3553 19.0598 21.4556 18.1942C21.556 17.3286 21.6628 16.4189 21.6905 16.1704C21.7183 15.9219 21.8357 14.9301 21.9468 13.9663C22.1731 12.0306 22.1795 11.9244 22.0856 11.5918C21.8357 10.7182 21.0414 10.1952 20.1957 10.3515Z" fill="black"/>
<path d="M20.3414 21.6145C20.0126 21.6626 19.7798 21.7728 19.5513 21.9892C19.2801 22.2457 19.1562 22.5242 19.1562 22.8829C19.1562 23.3638 19.4488 23.8046 19.9058 24.011C20.1556 24.1252 20.3094 24.1533 20.5934 24.1412C20.9393 24.1252 21.2169 24.009 21.4668 23.7745C21.6248 23.6263 21.7188 23.482 21.7956 23.2736C21.8469 23.1353 21.8554 23.0832 21.8554 22.8829C21.8554 22.6204 21.8362 22.5402 21.7166 22.3058C21.5629 22.0052 21.2575 21.7648 20.8988 21.6626C20.7535 21.6205 20.4631 21.5945 20.3414 21.6145Z" fill="black"/>
</svg>
