<svg width="47" height="34" viewBox="0 0 47 34" fill="none" xmlns="http://www.w3.org/2000/svg">
<g filter="url(#filter0_d_959_2080)">
<path d="M32.5969 16.3305L35.099 16.3305L35.099 25.7986L41.0969 13.3313L37.5969 13.3313L42.0991 2.83122L32.5969 2.83122L32.5969 16.3305Z" stroke="black" stroke-width="0.7" stroke-linecap="round" shape-rendering="crispEdges"/>
</g>
<path d="M3.78013 25.92C3.60619 25.92 3.43153 25.8822 3.2655 25.8065C2.932 25.6553 2.67325 25.3701 2.53669 25.0061C2.40228 24.6452 2.40372 24.2497 2.54172 23.892L3.53863 21.1959C3.57816 21.0879 3.67303 21.0178 3.77797 21.0178C3.88363 21.0186 3.9785 21.0887 4.01731 21.1959L5.00775 23.8944C5.14647 24.2615 5.14575 24.6618 5.00488 25.0179C4.87406 25.3732 4.62034 25.6553 4.29331 25.8058C4.12872 25.8822 3.95406 25.92 3.78013 25.92ZM3.77725 22.061L3.02041 24.1079L3.01897 24.1126C2.93416 24.3308 2.93344 24.5719 3.01537 24.7918C3.09875 25.0155 3.25759 25.1896 3.46316 25.2826C3.66872 25.3764 3.89225 25.3756 4.0935 25.2834C4.29259 25.192 4.44712 25.0202 4.52834 24.7996C4.61603 24.579 4.61531 24.3364 4.52978 24.1102L3.77725 22.061ZM23.08 25.6364H22.5625V14.1018H11.6016C8.81569 14.1018 6.54947 16.8019 6.54947 20.1212C6.54947 20.278 6.43375 20.4048 6.29072 20.4048H1.25875C1.11572 20.4048 1 20.278 1 20.1212C1 13.9884 5.61509 8.80727 11.0776 8.80727H13.9375V6.22303H10.2431C9.50641 6.22303 8.90625 5.56594 8.90625 4.75758C8.90625 3.94921 9.50569 3.29212 10.2431 3.29212H18.1494C18.8861 3.29212 19.4863 3.94921 19.4863 4.75758C19.4863 5.56594 18.8861 6.22303 18.1494 6.22303H14.455V8.80727H22.5625V2H23.0807L23.08 25.6364ZM1.52109 19.8376H6.03628C6.16278 16.337 8.61012 13.5345 11.6008 13.5345H22.5618V9.37454H11.0776C5.98022 9.37454 1.66053 14.1373 1.52109 19.8376ZM10.2431 3.85939C9.79175 3.85939 9.42375 4.26279 9.42375 4.75758C9.42375 5.25236 9.79175 5.65576 10.2431 5.65576H18.1494C18.6015 5.65576 18.9688 5.25236 18.9688 4.75758C18.9688 4.26279 18.6015 3.85939 18.1494 3.85939H10.2431Z" fill="black" stroke="black" stroke-width="0.2"/>
<defs>
<filter id="filter0_d_959_2080" x="28.2461" y="2.4812" width="18.3848" height="31.4691" filterUnits="userSpaceOnUse" color-interpolation-filters="sRGB">
<feFlood flood-opacity="0" result="BackgroundImageFix"/>
<feColorMatrix in="SourceAlpha" type="matrix" values="0 0 0 0 0 0 0 0 0 0 0 0 0 0 0 0 0 0 127 0" result="hardAlpha"/>
<feOffset dy="4"/>
<feGaussianBlur stdDeviation="2"/>
<feComposite in2="hardAlpha" operator="out"/>
<feColorMatrix type="matrix" values="0 0 0 0 0 0 0 0 0 0 0 0 0 0 0 0 0 0 0.25 0"/>
<feBlend mode="normal" in2="BackgroundImageFix" result="effect1_dropShadow_959_2080"/>
<feBlend mode="normal" in="SourceGraphic" in2="effect1_dropShadow_959_2080" result="shape"/>
</filter>
</defs>
</svg>
