<svg width="32" height="32" viewBox="0 0 32 32" fill="none" xmlns="http://www.w3.org/2000/svg">
<g clip-path="url(#clip0_739_2370)">
<path d="M26.0006 31.3599H6.00063V30.6399H12.6596C12.8266 29.0749 14.0746 27.8269 15.6406 27.6599V13.3329C14.5096 13.1589 13.6406 12.1789 13.6406 10.9999C13.6406 9.8209 14.5096 8.8409 15.6406 8.6669V5.2789L6.03063 7.8509L10.3136 15.3459C10.3446 15.4009 10.3606 15.4619 10.3606 15.5249C10.3606 18.2049 8.18062 20.3849 5.50063 20.3849C2.82063 20.3849 0.640625 18.2039 0.640625 15.5249C0.640625 15.4629 0.656625 15.4009 0.687625 15.3459L5.18762 7.4709C5.23763 7.3839 5.31963 7.3229 5.41463 7.2999L5.40663 7.2719L26.4076 1.6519C26.5536 1.6099 26.7326 1.6809 26.8126 1.8209L31.3126 9.6959C31.3436 9.7509 31.3606 9.8119 31.3606 9.8749C31.3606 12.5549 29.1796 14.7349 26.5006 14.7349C23.8216 14.7349 21.6406 12.5549 21.6406 9.8749C21.6406 9.8129 21.6576 9.7509 21.6886 9.6959L25.7606 2.5699L16.3606 5.0859V8.6669C17.4916 8.8409 18.3606 9.8209 18.3606 10.9999C18.3606 12.1789 17.4916 13.1589 16.3606 13.3329V27.6599C17.9266 27.8269 19.1746 29.0749 19.3416 30.6399H26.0006V31.3599ZM13.3846 30.6399H18.6156C18.4396 29.3539 17.3346 28.3599 16.0006 28.3599C14.6676 28.3599 13.5616 29.3539 13.3846 30.6399ZM1.38863 16.0089C1.62963 18.0639 3.38163 19.6639 5.50063 19.6639C7.61963 19.6639 9.37162 18.0639 9.61263 16.0089H1.38863ZM1.54963 15.2899H9.45162L5.50063 8.3749L1.54963 15.2899ZM22.3896 10.3599C22.6296 12.4149 24.3816 14.0149 26.5006 14.0149C28.6196 14.0149 30.3716 12.4149 30.6116 10.3599H22.3896ZM16.0006 9.3599C15.0966 9.3599 14.3606 10.0959 14.3606 10.9999C14.3606 11.9039 15.0966 12.6399 16.0006 12.6399C16.9046 12.6399 17.6406 11.9039 17.6406 10.9999C17.6406 10.0959 16.9046 9.3599 16.0006 9.3599ZM22.5496 9.6409H30.4516L26.5006 2.7259L22.5496 9.6409Z" fill="black"/>
</g>
<defs>
<clipPath id="clip0_739_2370">
<rect width="32" height="32" fill="white"/>
</clipPath>
</defs>
</svg>
