<svg width="32" height="32" viewBox="0 0 32 32" fill="none" xmlns="http://www.w3.org/2000/svg">
<g clip-path="url(#clip0_739_2367)">
<path d="M16.9969 31.36C15.1439 31.36 13.6369 29.852 13.6369 28C13.6369 26.796 14.2729 25.738 15.2269 25.146L4.83094 3.486L1.15794 5.322L0.835938 4.678L4.83594 2.678C4.92294 2.635 5.02294 2.628 5.11394 2.659C5.20494 2.69 5.27994 2.757 5.32194 2.844L15.8759 24.832C16.2269 24.708 16.6049 24.64 16.9979 24.64C18.1829 24.64 19.2259 25.256 19.8239 26.184L30.8369 20.678L31.1589 21.323L20.1469 26.828C20.2829 27.193 20.3579 27.589 20.3579 28.001C20.3569 29.853 18.8499 31.36 16.9969 31.36ZM16.9969 25.36C15.5409 25.36 14.3569 26.544 14.3569 28C14.3569 29.456 15.5419 30.64 16.9969 30.64C18.4529 30.64 19.6369 29.456 19.6369 28C19.6369 26.544 18.4529 25.36 16.9969 25.36ZM18.9969 23.36C18.8649 23.36 18.7379 23.287 18.6749 23.161L10.6749 7.161C10.5859 6.983 10.6579 6.767 10.8359 6.678L16.8359 3.678C17.0169 3.589 17.2309 3.661 17.3189 3.839L20.1579 9.517L23.8359 7.678C24.0109 7.59 24.2299 7.66 24.3189 7.839L29.3189 17.839C29.4079 18.017 29.3359 18.234 29.1579 18.322L19.1579 23.322C19.1059 23.348 19.0519 23.36 18.9969 23.36ZM14.4799 13.161L19.1579 22.516L23.6989 20.245L19.0209 10.89L14.4799 13.161ZM19.6649 10.568L24.3429 19.924L28.5139 17.838L23.8359 8.482L19.6649 10.568ZM11.4799 7.161L14.1579 12.517L16.5139 11.339L13.8359 5.983L11.4799 7.161ZM14.4799 5.661L17.1579 11.017L19.5129 9.839L16.8349 4.483L14.4799 5.661Z" fill="black"/>
</g>
<defs>
<clipPath id="clip0_739_2367">
<rect width="32" height="32" fill="white"/>
</clipPath>
</defs>
</svg>
