<svg width="33" height="32" viewBox="0 0 33 32" fill="none" xmlns="http://www.w3.org/2000/svg">
<g clip-path="url(#clip0_941_7575)">
<path d="M31.7038 31.3599H1.70375C1.50475 31.3599 1.34375 31.1989 1.34375 30.9999V0.999893C1.34375 0.800893 1.50475 0.639893 1.70375 0.639893H19.7038C19.9028 0.639893 20.0638 0.800893 20.0638 0.999893V3.63989H25.7038C25.9028 3.63989 26.0638 3.80089 26.0638 3.99989V7.63989H31.7038C31.9028 7.63989 32.0638 7.80089 32.0638 7.99989V30.9999C32.0638 31.1989 31.9028 31.3599 31.7038 31.3599ZM20.0638 30.6399H31.3438V8.35989H20.0638V30.6399ZM13.0637 30.6399H19.3438V1.35989H2.06375V30.6399H8.34375V22.9999C8.34375 22.8009 8.50475 22.6399 8.70375 22.6399H12.7037C12.9028 22.6399 13.0637 22.8009 13.0637 22.9999V30.6399ZM9.06375 30.6399H12.3438V23.3599H9.06375V30.6399ZM20.0638 7.63989H25.3428V4.35989H20.0638V7.63989ZM28.0638 24.9999H27.3438V22.9999H28.0648L28.0638 24.9999ZM24.0638 24.9999H23.3438V22.9999H24.0648L24.0638 24.9999ZM17.0638 24.9999H16.3438V22.9999H17.0638V24.9999ZM5.06375 24.9999H4.34375V22.9999H5.06375V24.9999ZM28.0638 18.9999H27.3438V16.9999H28.0648L28.0638 18.9999ZM24.0638 18.9999H23.3438V16.9999H24.0648L24.0638 18.9999ZM17.0638 18.9999H16.3438V16.9999H17.0638V18.9999ZM13.0637 18.9999H12.3438V16.9999H13.0637V18.9999ZM9.06375 18.9999H8.34375V16.9999H9.06375V18.9999ZM5.06375 18.9999H4.34375V16.9999H5.06375V18.9999ZM28.0638 12.9999H27.3438V10.9999H28.0648L28.0638 12.9999ZM24.0638 12.9999H23.3438V10.9999H24.0648L24.0638 12.9999ZM17.0638 12.9999H16.3438V10.9999H17.0638V12.9999ZM13.0637 12.9999H12.3438V10.9999H13.0637V12.9999ZM9.06375 12.9999H8.34375V10.9999H9.06375V12.9999ZM5.06375 12.9999H4.34375V10.9999H5.06375V12.9999ZM17.0638 6.99989H16.3438V4.99989H17.0638V6.99989ZM13.0637 6.99989H12.3438V4.99989H13.0637V6.99989ZM9.06375 6.99989H8.34375V4.99989H9.06375V6.99989ZM5.06375 6.99989H4.34375V4.99989H5.06375V6.99989Z" fill="black"/>
</g>
<defs>
<clipPath id="clip0_941_7575">
<rect width="32" height="32" fill="white" transform="translate(0.703125)"/>
</clipPath>
</defs>
</svg>
