<svg width="39" height="37" viewBox="0 0 39 37" fill="none" xmlns="http://www.w3.org/2000/svg">
<g clip-path="url(#clip0_739_2309)">
<path d="M37.7828 32.7912H1.22026V31.9587H3.32748L4.24276 28.9178L1.28242 29.319C1.11667 29.3387 0.953358 29.2728 0.858296 29.1421C0.763233 29.0126 0.755921 28.8415 0.837577 28.7039C0.885108 28.623 5.59558 20.5651 4.4463 15.1145C3.24826 9.42805 2.03439 5.94774 2.02342 5.91305C1.97833 5.78587 2.00026 5.64596 2.08314 5.53843C2.16601 5.4309 2.29764 5.36499 2.43901 5.36499C2.61086 5.36499 19.6929 5.40546 29.4051 8.86033C29.5769 8.92162 29.6903 9.07655 29.6903 9.24999V12.6471C33.2965 13.3408 36.5421 13.4587 36.5786 13.4599C36.8139 13.468 37.0028 13.6518 37.0028 13.8761V30.0636C37.0028 30.2937 36.8065 30.4799 36.564 30.4799H33.3465V31.9587H37.7828V32.7912ZM30.909 31.9587H32.4678V30.4787H30.909V31.9587ZM24.8153 31.9587H30.0303V30.4787H24.8153V31.9587ZM22.3778 31.9587H23.9365V30.4787H22.3778V31.9587ZM15.0653 31.9587H21.5003V30.4787H18.2828C18.0402 30.4787 17.844 30.2926 17.844 30.0625V28.1662H15.0653V31.9587ZM12.6278 31.9587H14.1878V28.1662H12.6278V31.9587ZM6.67661 31.9587H11.7503V28.1662H9.78198L7.7357 28.4437L6.67661 31.9587ZM4.23911 31.9587H5.76376L6.78264 28.5732L5.19339 28.7883L4.23911 31.9587ZM18.7215 29.6462H36.1253V14.2704C34.9333 14.2034 31.4124 13.949 27.9267 13.1223C23.9329 12.1753 19.8866 12.8263 18.7215 13.0529V29.6462ZM4.56573 22.385C3.75283 24.9854 2.61573 27.2574 2.01245 28.379L9.28839 27.3916L8.95811 22.385H4.56573ZM10.1635 27.3337H17.844V9.66624H8.99955L10.1635 27.3337ZM4.8107 21.5525H8.90326L8.57664 16.6037H5.4993C5.55292 18.219 5.25798 19.9303 4.8107 21.5525ZM5.43836 15.7712H8.5218L8.19639 10.8225H4.35001C4.6547 12.0215 4.98133 13.4056 5.30673 14.9491C5.3628 15.2186 5.40789 15.4926 5.43836 15.7712ZM23.3223 11.7845C24.7982 11.7845 26.463 11.9175 28.1388 12.3141C28.3643 12.3672 28.5885 12.4181 28.8128 12.4667V9.54021C20.2401 6.59408 6.11111 6.24374 3.03864 6.20327C3.25923 6.88662 3.65898 8.18508 4.13551 9.98999H8.14276L8.09523 9.27543C8.0867 9.16096 8.12936 9.0488 8.21345 8.9644C8.29633 8.88115 8.41089 8.83374 8.53276 8.83374H18.2828C18.5253 8.83374 18.7215 9.0199 18.7215 9.24999V12.2019C19.5527 12.0458 21.2516 11.7845 23.3223 11.7845ZM33.3465 27.75H32.469V25.4375H33.3477L33.3465 27.75ZM26.034 27.75H25.1565V25.4375H26.0352L26.034 27.75ZM29.6903 26.5937H28.8128V24.2812H29.6915L29.6903 26.5937ZM22.3778 26.5937H21.5003V24.2812H22.379L22.3778 26.5937ZM15.6746 24.2812H14.7971V21.9687H15.6746V24.2812ZM33.3465 23.125H32.469V20.8125H33.3477L33.3465 23.125ZM26.034 23.125H25.1565V20.8125H26.0352L26.034 23.125ZM12.6278 23.125H11.7503V20.8125H12.6278V23.125ZM29.6903 21.9687H28.8128V19.6562H29.6915L29.6903 21.9687ZM22.3778 21.9687H21.5003V19.6562H22.379L22.3778 21.9687ZM15.6746 19.6562H14.7971V17.3437H15.6746V19.6562ZM33.3465 18.5H32.469V16.1875H33.3477L33.3465 18.5ZM26.034 18.5H25.1565V16.1875H26.0352L26.034 18.5ZM12.6278 18.5H11.7503V16.1875H12.6278V18.5ZM29.6903 17.3437H28.8128V15.0312H29.6915L29.6903 17.3437ZM22.3778 17.3437H21.5003V15.0312H22.379L22.3778 17.3437ZM15.6746 15.0312H14.7971V12.7187H15.6746V15.0312ZM12.6278 13.875H11.7503V11.5625H12.6278V13.875Z" fill="black"/>
</g>
<defs>
<clipPath id="clip0_739_2309">
<rect width="39" height="37" fill="white"/>
</clipPath>
</defs>
</svg>
