<svg width="99" height="286" viewBox="0 0 99 286" fill="none" xmlns="http://www.w3.org/2000/svg">
<path d="M50 43.6667C47.0545 43.6667 44.6667 46.0545 44.6667 49C44.6667 51.9455 47.0545 54.3333 50 54.3333C52.9455 54.3333 55.3333 51.9455 55.3333 49C55.3333 46.0545 52.9455 43.6667 50 43.6667ZM49 49L49 286H51L51 49H49Z" fill="black" fill-opacity="0.8"/>
<path d="M12.041 90.7687L26.3523 53.1914H72.6533L86.9615 90.7687H12.041Z" fill="#484746"/>
<path d="M1.21875 6.44626L22.6277 0.218018H76.3745L97.7834 6.44626H1.21875Z" fill="#484746"/>
<path d="M0.828125 6.06396H98.175L87.1971 91H11.806L0.828125 6.06396ZM86.9618 90.7687L97.7839 6.44946H1.21921L12.0413 90.7687H86.9588" fill="#E0E0E0"/>
<path d="M97.7834 6.44604L86.9613 90.7686H12.0408L1.21875 6.44604H97.7834Z" fill="#E0E0E0"/>
<path d="M0.828125 6.06398L22.4234 0H76.5797L98.175 6.06398H0.828125Z" fill="white"/>
<g clip-path="url(#clip0_954_4249)">
<path d="M69.6556 72.04H29.3431C29.0757 72.04 28.8594 71.7985 28.8594 71.5V26.5C28.8594 26.2015 29.0757 25.96 29.3431 25.96H53.5306C53.798 25.96 54.0144 26.2015 54.0144 26.5V30.46H61.5931C61.8605 30.46 62.0769 30.7015 62.0769 31V36.46H69.6556C69.923 36.46 70.1394 36.7015 70.1394 37V71.5C70.1394 71.7985 69.923 72.04 69.6556 72.04ZM54.0144 70.96H69.1719V37.54H54.0144V70.96ZM44.6081 70.96H53.0469V27.04H29.8269V70.96H38.2656V59.5C38.2656 59.2015 38.482 58.96 38.7494 58.96H44.1244C44.3918 58.96 44.6081 59.2015 44.6081 59.5V70.96ZM39.2331 70.96H43.6406V60.04H39.2331V70.96ZM54.0144 36.46H61.108V31.54H54.0144V36.46ZM64.7644 62.5H63.7969V59.5H64.7657L64.7644 62.5ZM59.3894 62.5H58.4219V59.5H59.3907L59.3894 62.5ZM49.9831 62.5H49.0156V59.5H49.9831V62.5ZM33.8581 62.5H32.8906V59.5H33.8581V62.5ZM64.7644 53.5H63.7969V50.5H64.7657L64.7644 53.5ZM59.3894 53.5H58.4219V50.5H59.3907L59.3894 53.5ZM49.9831 53.5H49.0156V50.5H49.9831V53.5ZM44.6081 53.5H43.6406V50.5H44.6081V53.5ZM39.2331 53.5H38.2656V50.5H39.2331V53.5ZM33.8581 53.5H32.8906V50.5H33.8581V53.5ZM64.7644 44.5H63.7969V41.5H64.7657L64.7644 44.5ZM59.3894 44.5H58.4219V41.5H59.3907L59.3894 44.5ZM49.9831 44.5H49.0156V41.5H49.9831V44.5ZM44.6081 44.5H43.6406V41.5H44.6081V44.5ZM39.2331 44.5H38.2656V41.5H39.2331V44.5ZM33.8581 44.5H32.8906V41.5H33.8581V44.5ZM49.9831 35.5H49.0156V32.5H49.9831V35.5ZM44.6081 35.5H43.6406V32.5H44.6081V35.5ZM39.2331 35.5H38.2656V32.5H39.2331V35.5ZM33.8581 35.5H32.8906V32.5H33.8581V35.5Z" fill="black"/>
</g>
<defs>
<clipPath id="clip0_954_4249">
<rect width="43" height="48" fill="white" transform="translate(28 25)"/>
</clipPath>
</defs>
</svg>
