<svg width="98" height="286" viewBox="0 0 98 286" fill="none" xmlns="http://www.w3.org/2000/svg">
<path d="M49 43.6667C46.0545 43.6667 43.6667 46.0545 43.6667 49C43.6667 51.9455 46.0545 54.3333 49 54.3333C51.9455 54.3333 54.3333 51.9455 54.3333 49C54.3333 46.0545 51.9455 43.6667 49 43.6667ZM48 49L48 286H50L50 49H48Z" fill="black" fill-opacity="0.8"/>
<path d="M11.8652 90.7687L26.1765 53.1914H72.4775L86.7857 90.7687H11.8652Z" fill="#484746"/>
<path d="M1.04297 6.44626L22.4519 0.218018H76.1987L97.6077 6.44626H1.04297Z" fill="#484746"/>
<path d="M0.652344 6.06396H97.9992L87.0213 91H11.6303L0.652344 6.06396ZM86.786 90.7687L97.6081 6.44946H1.04343L11.8655 90.7687H86.783" fill="#FF1243"/>
<path d="M97.6077 6.44604L86.7856 90.7686H11.8651L1.04297 6.44604H97.6077Z" fill="#ED254E"/>
<path d="M0.652344 6.06398L22.2476 0H76.4039L97.9992 6.06398H0.652344Z" fill="#FF1243"/>
<path d="M49 43.6667C46.0545 43.6667 43.6667 46.0545 43.6667 49C43.6667 51.9455 46.0545 54.3333 49 54.3333C51.9455 54.3333 54.3333 51.9455 54.3333 49C54.3333 46.0545 51.9455 43.6667 49 43.6667ZM48 49L48 286H50L50 49H48Z" fill="black" fill-opacity="0.8"/>
<path d="M11.8652 90.7687L26.1765 53.1914H72.4775L86.7857 90.7687H11.8652Z" fill="#484746"/>
<path d="M1.04297 6.44626L22.4519 0.218018H76.1987L97.6077 6.44626H1.04297Z" fill="#484746"/>
<path d="M0.652344 6.06396H97.9992L87.0213 91H11.6303L0.652344 6.06396ZM86.786 90.7687L97.6081 6.44946H1.04343L11.8655 90.7687H86.783" fill="#FF1243"/>
<path d="M97.6077 6.44604L86.7856 90.7686H11.8651L1.04297 6.44604H97.6077Z" fill="#DE274C"/>
<path d="M0.652344 6.06398L22.2476 0H76.4039L97.9992 6.06398H0.652344Z" fill="#FF1243"/>
<g clip-path="url(#clip0_954_4849)">
<path d="M72.4727 72H28.5273V70.9219H33.8594V39.0573H28.5273C28.2358 39.0573 28 38.8162 28 38.5182V35.5234C28 35.2255 28.2358 34.9844 28.5273 34.9844H30.9297V31.0312C30.9297 30.7333 31.1655 30.4922 31.457 30.4922H37.2212L48.8389 26.0389C48.8989 26.0135 48.9663 26 49.0352 26H51.9648C52.0542 26 52.1362 26.0225 52.2109 26.0614L69.6675 34.9844H72.4727C72.7642 34.9844 73 35.2255 73 35.5234V38.5182C73 38.8162 72.7642 39.0573 72.4727 39.0573H67.1406V48.4609H68.0781C68.3696 48.4609 68.6055 48.702 68.6055 49V51.9948C68.6055 52.2928 68.3696 52.5339 68.0781 52.5339H65.6758V55.9464V57.6617C65.9673 57.6617 68.0772 57.6617 68.0772 57.6617V58.733C68.0772 58.733 65.9673 58.733 65.6758 58.733H64.6211C64.3296 58.733 63.6827 58.733 63.6827 58.733V57.6617C63.6827 57.6617 64.3296 57.6617 64.6211 57.6617V55.9464V52.5339H62.2188C61.9272 52.5339 61.6914 52.2928 61.6914 51.9948V49C61.6914 48.702 61.9272 48.4609 62.2188 48.4609H63.1562V39.0573H52.4922V70.9219H72.4727V72ZM49.5625 70.9219H51.4375V27.0781H49.5625V56.487C49.5625 56.785 49.3267 57.026 49.0352 57.026H37.3164C37.0249 57.026 36.7891 56.785 36.7891 56.487V39.0573H34.9141V70.9219H36.7891V59.4818C36.7891 59.1838 37.0249 58.9427 37.3164 58.9427H49.0352C49.3267 58.9427 49.5625 59.1838 49.5625 59.4818V70.9219ZM37.8438 70.9219H48.5078V60.0208H37.8438V70.9219ZM37.8438 55.9479H48.0493L37.8438 40.2986V55.9479ZM38.3022 39.0573L48.5078 54.7066V39.0573H38.3022ZM62.7461 51.4557H67.5493V49.5391H62.7461V51.4557ZM64.2109 48.4609H66.0845V39.0573H64.2109V48.4609ZM52.4922 37.9792H71.9453V36.0625H52.4922V37.9792ZM29.0547 37.9792H48.5078V36.0625H29.0547V37.9792ZM52.4922 34.9844H67.3076L52.4922 27.412V34.9844ZM37.8438 34.9844H48.5078V27.3177L37.8438 31.4056V34.9844ZM31.9844 34.9844H36.7891V31.5703H31.9844V34.9844Z" fill="black"/>
</g>
<defs>
<clipPath id="clip0_954_4849">
<rect width="49" height="46" fill="white" transform="translate(24 26)"/>
</clipPath>
</defs>
</svg>
