<svg width="98" height="286" viewBox="0 0 98 286" fill="none" xmlns="http://www.w3.org/2000/svg">
<path d="M49 43.6667C46.0545 43.6667 43.6667 46.0545 43.6667 49C43.6667 51.9455 46.0545 54.3333 49 54.3333C51.9455 54.3333 54.3333 51.9455 54.3333 49C54.3333 46.0545 51.9455 43.6667 49 43.6667ZM48 49L48 286H50L50 49H48Z" fill="black" fill-opacity="0.8"/>
<path d="M11.8652 90.7687L26.1765 53.1914H72.4775L86.7857 90.7687H11.8652Z" fill="#484746"/>
<path d="M1.04297 6.44615L22.4519 0.217911H76.1987L97.6077 6.44615H1.04297Z" fill="#484746"/>
<path d="M0.652344 6.06396H97.9992L87.0213 91H11.6303L0.652344 6.06396ZM86.786 90.7687L97.6081 6.44946H1.04343L11.8655 90.7687H86.783" fill="#FF1242"/>
<path d="M97.6077 6.44611L86.7856 90.7687H11.8651L1.04297 6.44611H97.6077Z" fill="#DE274C"/>
<path d="M0.652344 6.06398L22.2476 0H76.4039L97.9992 6.06398H0.652344Z" fill="#FF1242"/>
</svg>
