<svg width="32" height="32" viewBox="0 0 32 32" fill="none" xmlns="http://www.w3.org/2000/svg">
<g clip-path="url(#clip0_762_2230)">
<path d="M16.0006 31.3599C8.08262 31.3599 1.64062 24.9179 1.64062 16.9999V0.999893C1.64062 0.800893 1.80163 0.639893 2.00063 0.639893H30.0006C30.1996 0.639893 30.3606 0.800893 30.3606 0.999893V16.9999C30.3606 24.9179 23.9186 31.3599 16.0006 31.3599ZM16.3606 26.3609V30.6349C20.1176 30.5359 23.5006 28.9119 25.9126 26.3609H16.3606ZM2.36062 1.35989V16.9999C2.36062 24.3999 8.28562 30.4439 15.6406 30.6359V1.35989H2.36062ZM16.3606 25.6409H26.5466C27.5796 24.3819 28.3936 22.9359 28.9256 21.3619H16.3606V25.6409ZM16.3606 20.6409H29.1476C29.4686 19.4819 29.6406 18.2609 29.6406 16.9999V16.3599H16.3606V20.6409ZM16.3606 15.6399H29.6406V11.3599H16.3606V15.6399ZM16.3606 10.6399H29.6406V6.35989H16.3606V10.6399ZM16.3606 5.63989H29.6406V1.35989H16.3606V5.63989Z" fill="black"/>
</g>
<defs>
<clipPath id="clip0_762_2230">
<rect width="32" height="32" fill="white"/>
</clipPath>
</defs>
</svg>
