<svg width="32" height="32" viewBox="0 0 32 32" fill="none" xmlns="http://www.w3.org/2000/svg">
<path d="M4.25119 31.2549L3.74219 30.7449L6.66019 27.8359C6.87319 24.9109 9.30419 22.6399 12.2552 22.6399H19.9972C20.7182 22.6399 21.3102 23.2039 21.3542 23.9139C21.3622 23.9419 21.3662 23.9719 21.3662 24.0019C21.3662 24.0669 21.3632 24.1319 21.3572 24.1959L26.3562 20.1339C27.0192 19.4679 28.1462 19.4669 28.8362 20.1579C29.5282 20.8499 29.5272 21.9759 28.8372 22.6679L22.7352 28.7699C22.3662 29.1389 21.8782 29.3769 21.3602 29.4419L14.1632 30.3409L13.2502 31.2539L12.7412 30.7439L13.7412 29.7439C13.7982 29.6869 13.8712 29.6509 13.9512 29.6409L21.2712 28.7259C21.6302 28.6819 21.9692 28.5159 22.2252 28.2589L28.3272 22.1569C28.7382 21.7469 28.7382 21.0779 28.3272 20.6659C27.9162 20.2549 27.2462 20.2559 26.8372 20.6669L20.5652 25.7659C20.1472 26.1359 19.5982 26.3599 18.9972 26.3599H13.9972V25.6399H18.9972C19.3932 25.6399 19.7572 25.4999 20.0422 25.2689L20.0412 25.2669L20.1032 25.2149C20.4202 24.9299 20.6252 24.5239 20.6442 24.0699C20.6392 24.0479 20.6362 24.0239 20.6362 23.9999C20.6362 23.6469 20.3492 23.3599 19.9962 23.3599H12.2552C9.64119 23.3599 7.49619 25.4029 7.37019 28.0109C7.36619 28.0999 7.32819 28.1849 7.26519 28.2479L4.25119 31.2549ZM16.3572 11.3599H18.9972C23.1242 11.3599 26.3572 8.12689 26.3572 3.99989V0.999893C26.3572 0.800893 26.1962 0.639893 25.9972 0.639893H22.9972C18.9442 0.639893 15.7532 3.75689 15.6402 7.77789C14.4652 5.30889 11.9622 3.63989 8.99719 3.63989H5.99719C5.79819 3.63989 5.63719 3.80089 5.63719 3.99989V6.99989C5.63719 11.1269 8.87019 14.3599 12.9972 14.3599H15.6372V20.9999H16.3572V11.3599ZM8.99719 4.35989C12.7202 4.35989 15.6372 7.27689 15.6372 10.9999V13.1309L10.2512 7.74589L9.74319 8.25389L15.1282 13.6399H12.9972C9.27419 13.6399 6.35719 10.7229 6.35719 6.99989V4.35989H8.99719ZM22.2522 5.25389L21.7422 4.74489L16.3572 10.1299V7.99989C16.3572 4.27689 19.2742 1.35989 22.9972 1.35989H25.6372V3.99989C25.6372 7.72289 22.7212 10.6399 18.9972 10.6399H16.8662L22.2522 5.25389Z" fill="black"/>
</svg>
