<svg width="32" height="32" viewBox="0 0 32 32" fill="none" xmlns="http://www.w3.org/2000/svg">
<g clip-path="url(#clip0_739_2361)">
<path d="M10.4054 14.4481C10.3134 14.4481 10.2214 14.4131 10.1514 14.3431C10.0104 14.2021 10.0104 13.9751 10.1514 13.8341L17.7414 6.24409C17.8824 6.10309 18.1104 6.10309 18.2514 6.24409C18.3924 6.38509 18.3924 6.61209 18.2514 6.75309L10.6604 14.3431C10.5894 14.4131 10.4974 14.4481 10.4054 14.4481ZM16.2474 12.6051C16.1554 12.6051 16.0634 12.5701 15.9934 12.5001C15.8524 12.3591 15.8524 12.1321 15.9934 11.9911L19.7404 8.24409C19.8814 8.10309 20.1094 8.10309 20.2504 8.24409C20.3914 8.38509 20.3914 8.61209 20.2504 8.75309L16.5024 12.5001C16.4324 12.5701 16.3404 12.6051 16.2474 12.6051ZM28.8494 31.3601C28.6154 31.3601 28.3994 31.2751 28.2434 31.1191L22.2214 25.0971C20.2204 23.0961 17.9794 23.0941 15.6054 23.0931H15.3494C11.7564 23.9131 7.65641 22.7971 4.67341 19.8151C0.244415 15.3851 -0.0725853 8.49509 3.96641 4.45609C7.16941 1.25009 12.4014 0.71309 16.6874 3.14909L16.3324 3.77509C12.2624 1.46209 7.49741 1.94009 4.47341 4.96409C0.715415 8.72209 1.03241 15.1551 5.18041 19.3041C9.33041 23.4531 15.7644 23.7701 19.5204 20.0111C21.7844 17.7461 22.6584 14.3991 21.8584 11.0571L22.5594 10.8891C22.9634 12.5811 22.9674 14.2761 22.6024 15.8501V16.0951C22.6034 18.4681 22.6054 20.7091 24.6064 22.7101L30.6274 28.7311C30.9924 29.0981 30.9414 29.7231 30.5114 30.1541L29.6634 31.0011C29.4704 31.1941 29.2254 31.3181 28.9744 31.3511C28.9334 31.3571 28.8904 31.3601 28.8494 31.3601ZM23.0184 24.8771L28.7514 30.6091C28.8084 30.6681 28.9994 30.6481 29.1534 30.4921L30.0014 29.6451C30.1604 29.4871 30.1764 29.3001 30.1174 29.2411L24.3874 23.5101L23.0184 24.8771ZM17.3494 22.4041C19.1194 22.4971 20.8844 22.8701 22.5064 24.3721L23.8814 22.9961C22.3804 21.3741 22.0074 19.6081 21.9144 17.8391C21.4484 18.8271 20.8164 19.7351 20.0304 20.5221C19.2334 21.3171 18.3264 21.9441 17.3494 22.4041ZM22.4974 7.36009C21.6004 7.36009 20.7564 7.01009 20.1214 6.37609C18.8114 5.06609 18.8114 2.93509 20.1214 1.62509C21.3924 0.35509 23.6054 0.35709 24.8744 1.62509C25.5094 2.25909 25.8584 3.10309 25.8584 4.00009C25.8584 4.89709 25.5084 5.74109 24.8744 6.37509C24.2394 7.01009 23.3954 7.36009 22.4974 7.36009ZM19.8674 4.21409C19.9164 4.81709 20.1714 5.40609 20.6314 5.86609C21.0914 6.32609 21.6814 6.58109 22.2834 6.62909C22.2324 6.01009 21.9634 5.42209 21.5184 4.97809C21.0754 4.53509 20.4874 4.26509 19.8674 4.21409ZM19.9074 3.49509C20.7024 3.55609 21.4584 3.90009 22.0284 4.47009C22.5974 5.04009 22.9414 5.79509 23.0024 6.59109C23.5024 6.49409 23.9794 6.25309 24.3644 5.86709C24.7374 5.49409 24.9854 5.02909 25.0874 4.52309C24.2854 4.46509 23.5244 4.12109 22.9504 3.54709C22.3764 2.97309 22.0324 2.21309 21.9744 1.41109C21.4684 1.51209 21.0034 1.76009 20.6304 2.13309C20.2454 2.52009 20.0044 2.99609 19.9074 3.49509ZM22.6934 1.36709C22.7404 1.99409 23.0094 2.58909 23.4604 3.03809C23.9084 3.48709 24.5044 3.75709 25.1314 3.80409C25.0854 3.17309 24.8174 2.58509 24.3644 2.13309C23.9114 1.68109 23.3254 1.41309 22.6934 1.36709Z" fill="black"/>
</g>
<defs>
<clipPath id="clip0_739_2361">
<rect width="32" height="32" fill="white"/>
</clipPath>
</defs>
</svg>
